<svg xmlns="http://www.w3.org/2000/svg" viewBox="0 0 49.56 20.6"><defs><style>.cls-1{fill:#cdc200;}</style></defs><title>Ресурс 1</title><g id="Слой_2" data-name="Слой 2"><g id="GALLERY"><path class="cls-1" d="M10.72,0h2a.5.5,0,0,0,.13.06,11.18,11.18,0,0,1,4.63,1.82,23.47,23.47,0,0,1,4.3,3.58c2.37,2.49,4.72,5,7.12,7.48a29.77,29.77,0,0,0,3.21,3,9.89,9.89,0,0,0,12.7-.6,6.06,6.06,0,0,0,2.21-4.5A6.81,6.81,0,0,0,40.69,4.1,2,2,0,0,0,38.35,6a3,3,0,0,0,1.05,2.42,2.28,2.28,0,0,0,3.82-.53,2.66,2.66,0,0,1,.17-.21,6.25,6.25,0,0,1,.15,2.64A4.17,4.17,0,0,1,40.19,14a5.13,5.13,0,0,1-2.89-.32A3.42,3.42,0,0,1,35,10.75a16,16,0,0,1,0-2.18c0-.42.1-.84.15-1.31A10.3,10.3,0,0,1,29.53,8a11.63,11.63,0,0,1-5.13-2.38,12.41,12.41,0,0,0,5-1.53c1.08-.58,2.13-1.2,3.19-1.81A17.36,17.36,0,0,1,36.75.4c.65-.17,1.33-.27,2-.4h1.6l1,.15A8.83,8.83,0,0,1,49,6.63a13.69,13.69,0,0,1,.57,4.09,8.5,8.5,0,0,1-3.2,6.84,13.45,13.45,0,0,1-5.91,2.75c-.54.12-1.09.2-1.64.29h-2a.89.89,0,0,0-.17-.06A10.71,10.71,0,0,1,32.48,19a22.82,22.82,0,0,1-4.7-3.82c-2.39-2.51-4.76-5-7.17-7.54a34.48,34.48,0,0,0-3.18-2.93,8.91,8.91,0,0,0-7-1.94A10,10,0,0,0,4.18,5.85,5.76,5.76,0,0,0,2.5,9.77,6.81,6.81,0,0,0,8.87,16.5a2.06,2.06,0,0,0,2.34-2.34A3.13,3.13,0,0,0,10,12a2.25,2.25,0,0,0-3.68.65,2.21,2.21,0,0,1-.17.21A6.4,6.4,0,0,1,6,10.42,4.2,4.2,0,0,1,9.34,6.59a5.1,5.1,0,0,1,3.13.4,3.43,3.43,0,0,1,2.09,2.86,10.05,10.05,0,0,1,0,1.63c0,.6-.11,1.2-.18,1.85,3.94-1.64,7.46-.87,10.82,1.66a11.91,11.91,0,0,0-5.07,1.49c-1.09.58-2.15,1.22-3.22,1.83a17.34,17.34,0,0,1-4.13,1.87c-.64.17-1.3.27-2,.4H9.26l-1.08-.15A8.82,8.82,0,0,1,.58,14,13.81,13.81,0,0,1,0,10,8.57,8.57,0,0,1,3.52,2.79,13.37,13.37,0,0,1,8.8.36C9.43.22,10.08.12,10.72,0Z"/></g></g></svg>