<?xml version="1.0" encoding="utf-8"?>
<!-- Generator: Adobe Illustrator 21.0.0, SVG Export Plug-In . SVG Version: 6.00 Build 0)  -->
<svg version="1.1" id="Слой_1" xmlns="http://www.w3.org/2000/svg" xmlns:xlink="http://www.w3.org/1999/xlink" x="0px" y="0px"
	 viewBox="0 0 240 240" style="enable-background:new 0 0 240 240;" xml:space="preserve">
<style type="text/css">
	.st0{fill:#FFFFFF;}
	.st1{fill:#E7E7E7;}
	.st2{fill:#F1F1F1;}
	.st3{opacity:0.4;}
	.st4{fill:#DD553F;}
	.st5{fill:#D24F36;}
	.st6{fill:#E45B46;}
	.st7{opacity:0.2;}
	.st8{fill:#323232;}
	.st9{opacity:0.25;}
	.st10{fill:#50342E;}
	.st11{fill:#F4F4F4;}
	.st12{opacity:2.000000e-02;}
	.st13{fill:url(#SVGID_1_);}
</style>
<g>
	<path id="r_1_" class="st0" d="M35.4,49h169.5v1.1H35.4V49z"/>
</g>
<g>
	<path id="p_1_" class="st0" d="M22,61.3h196.3v75.3H22V61.3z"/>
</g>
<g>
	<path id="n_1_" class="st0" d="M22,49h15v14.5H22V49z"/>
</g>
<g>
	<path id="l_1_" class="st0" d="M203.3,49h15v14.5h-15C203.3,63.5,203.3,49,203.3,49z"/>
</g>
<g>
	<path id="j_1_" class="st0" d="M22,177.3h196.3v14.5H22V177.3z"/>
</g>
<g>
	<path id="g_1_" class="st0" d="M35.4,49C28,49,22,55,22,62.4v116c0,7.4,6,13.4,13.4,13.4h169.5c7.4,0,13.4-6,13.4-13.4v-116
		c0-7.4-6-13.4-13.4-13.4C204.9,49,35.4,49,35.4,49z"/>
</g>
<g>
	<path id="d_1_" class="st0" d="M44.3,81.3H196v110.4H44.3V81.3z"/>
</g>
<g>
	<path id="a_1_" class="st0" d="M35.4,49C28,49,22,55,22,62.4v116c0,7.4,6,13.4,13.4,13.4h169.5c7.4,0,13.4-6,13.4-13.4v-116
		c0-7.4-6-13.4-13.4-13.4C204.9,49,35.4,49,35.4,49z"/>
</g>
<g>
	<g>
		<g>
			<path class="st1" d="M44.3,191.8H196V81.3H44.3V191.8z"/>
			<path class="st2" d="M120.1,136.6l-75.8,55.2H196V81.3L120.1,136.6z"/>
			<g transform="translate(22.305 32.342)">
				<g class="st3">
					<path class="st0" d="M97.8,104.3L22,159.4h1.5l74.3-54l75.8-55.2V49L97.8,104.3z"/>
				</g>
			</g>
			<path class="st4" d="M22,62.4v129.4h22.3V62.4H22z"/>
			<path class="st5" d="M196,62.4v129.4h22.3V62.4H196z"/>
		</g>
	</g>
	<g>
		<g>
			<path class="st6" d="M204.9,49l-84.8,58L35.4,49H22v13.4c0,4.6,2.3,8.6,5.8,11l92.3,63.2l92.3-63.2c3.6-2.5,5.8-6.6,5.8-11V49
				H204.9z"/>
			<g transform="translate(0 128.253)">
				<g class="st7">
					<path class="st8" d="M204.9,62.4H35.4C28,62.4,22,56.4,22,49v1.1c0,7.4,6,13.4,13.4,13.4h169.5c7.4,0,13.4-6,13.4-13.4V49
						C218.3,56.4,212.3,62.4,204.9,62.4"/>
				</g>
			</g>
			<g transform="translate(180.67)">
				<g class="st7">
					<path class="st0" d="M24.2,49l-1.6,1.1h1.6c7.4,0,13.4,6,13.4,13.4v-1.1C37.6,55,31.6,49,24.2,49"/>
				</g>
			</g>
			<g>
				<g class="st7">
					<path class="st0" d="M35.4,49l1.6,1.1h-1.6c-7.4,0-13.4,6-13.4,13.4v-1.1C22,55,28,49,35.4,49"/>
				</g>
			</g>
			<g transform="translate(0 12.268)">
				<g class="st9">
					<path class="st10" d="M212.5,60l-92.3,63.2L27.8,60c-3.6-2.5-5.8-6.6-5.8-11v1.1c0,4.6,2.3,8.6,5.8,11l92.3,63.2l92.3-63.2
						c3.6-2.5,5.8-6.6,5.8-11V49C218.3,53.6,216,57.6,212.5,60"/>
				</g>
			</g>
			<path class="st11" d="M35.4,49l84.8,58L205,49H35.4z"/>
			<g transform="translate(13.383)">
				<g class="st12">
					<path class="st8" d="M22,49l1.6,1.1h166.3l1.6-1.1H22z"/>
				</g>
			</g>
		</g>
	</g>
	
		<radialGradient id="SVGID_1_" cx="-1112.1697" cy="-310.9696" r="1.1811" gradientTransform="matrix(196.283 0 0 142.751 218326.375 44443.5586)" gradientUnits="userSpaceOnUse">
		<stop  offset="0" style="stop-color:#FFFFFF;stop-opacity:0.1"/>
		<stop  offset="1" style="stop-color:#000000;stop-opacity:0"/>
	</radialGradient>
	<path class="st13" d="M35.4,49C28,49,22,55,22,62.4v116c0,7.4,6,13.4,13.4,13.4h169.5c7.4,0,13.4-6,13.4-13.4v-116
		c0-7.4-6-13.4-13.4-13.4C204.9,49,35.4,49,35.4,49z"/>
</g>
</svg>
