<?xml version="1.0" encoding="utf-8"?>
<!-- Generator: Adobe Illustrator 21.0.0, SVG Export Plug-In . SVG Version: 6.00 Build 0)  -->
<svg version="1.1" id="Слой_1" xmlns="http://www.w3.org/2000/svg" xmlns:xlink="http://www.w3.org/1999/xlink" x="0px" y="0px"
	 viewBox="0 0 240 240" style="enable-background:new 0 0 240 240;" xml:space="preserve">
<style type="text/css">
	.st0{filter:url(#Adobe_OpacityMaskFilter);}
	.st1{fill:#FFFFFF;}
	.st2{mask:url(#b_1_);}
	.st3{fill:#E7E7E7;}
	.st4{fill:#F1F1F1;}
	.st5{filter:url(#Adobe_OpacityMaskFilter_1_);}
	.st6{opacity:0.4;mask:url(#e_1_);}
	.st7{fill:#DD553F;}
	.st8{fill:#D24F36;}
	.st9{fill:url(#SVGID_1_);}
	.st10{filter:url(#Adobe_OpacityMaskFilter_2_);}
	.st11{mask:url(#h_1_);}
	.st12{fill:#E45B46;}
	.st13{filter:url(#Adobe_OpacityMaskFilter_3_);}
	.st14{opacity:0.2;mask:url(#k_1_);}
	.st15{fill:#323232;}
	.st16{filter:url(#Adobe_OpacityMaskFilter_4_);}
	.st17{opacity:0.2;mask:url(#m_1_);}
	.st18{filter:url(#Adobe_OpacityMaskFilter_5_);}
	.st19{opacity:0.2;mask:url(#o_1_);}
	.st20{filter:url(#Adobe_OpacityMaskFilter_6_);}
	.st21{opacity:0.25;mask:url(#q_1_);}
	.st22{fill:#50342E;}
	.st23{fill:#F4F4F4;}
	.st24{filter:url(#Adobe_OpacityMaskFilter_7_);}
	.st25{opacity:2.000000e-02;mask:url(#s_1_);}
	.st26{fill:url(#SVGID_2_);}
</style>
<g>
	<g>
		<defs>
			<filter id="Adobe_OpacityMaskFilter" filterUnits="userSpaceOnUse" x="22" y="62.4" width="196.3" height="129.4">
				<feColorMatrix  type="matrix" values="1 0 0 0 0  0 1 0 0 0  0 0 1 0 0  0 0 0 1 0"/>
			</filter>
		</defs>
		<mask maskUnits="userSpaceOnUse" x="22" y="62.4" width="196.3" height="129.4" id="b_1_">
			<g class="st0">
				<path id="a_1_" class="st1" d="M35.4,49C28,49,22,55,22,62.4v116c0,7.4,6,13.4,13.4,13.4h169.5c7.4,0,13.4-6,13.4-13.4v-116
					c0-7.4-6-13.4-13.4-13.4H35.4z"/>
			</g>
		</mask>
		<g class="st2">
			<path class="st3" d="M44.3,191.8H196V81.3H44.3V191.8z"/>
			<path class="st4" d="M120.1,136.6l-75.8,55.2H196V81.3L120.1,136.6z"/>
			<g transform="translate(22.305 32.342)">
				<defs>
					<filter id="Adobe_OpacityMaskFilter_1_" filterUnits="userSpaceOnUse" x="22" y="49" width="151.7" height="110.4">
						<feColorMatrix  type="matrix" values="1 0 0 0 0  0 1 0 0 0  0 0 1 0 0  0 0 0 1 0"/>
					</filter>
				</defs>
				<mask maskUnits="userSpaceOnUse" x="22" y="49" width="151.7" height="110.4" id="e_1_">
					<g class="st5">
						<path id="d_1_" class="st1" d="M22,49h151.7v110.4H22V49z"/>
					</g>
				</mask>
				<g class="st6">
					<path class="st1" d="M97.8,104.3L22,159.4h1.5l74.3-54l75.8-55.2V49L97.8,104.3z"/>
				</g>
			</g>
			<path class="st7" d="M22,62.4v129.4h22.3V62.4H22z"/>
			<path class="st8" d="M196,62.4v129.4h22.3V62.4H196z"/>
		</g>
	</g>
	
		<linearGradient id="SVGID_1_" gradientUnits="userSpaceOnUse" x1="-834.2469" y1="657.6771" x2="-833.6392" y2="656.7735" gradientTransform="matrix(192.363 0 0 -129.367 160557.4688 85105.9766)">
		<stop  offset="0" style="stop-color:#262626;stop-opacity:0.2"/>
		<stop  offset="1" style="stop-color:#000000;stop-opacity:2.000000e-02"/>
	</linearGradient>
	<path class="st9" d="M25.9,71.8l119.9,119.9h59.1c7.4,0,13.4-6,13.4-13.4v-116L25.9,71.8L25.9,71.8z"/>
	<g>
		<defs>
			<filter id="Adobe_OpacityMaskFilter_2_" filterUnits="userSpaceOnUse" x="22" y="49" width="196.3" height="142.8">
				<feColorMatrix  type="matrix" values="1 0 0 0 0  0 1 0 0 0  0 0 1 0 0  0 0 0 1 0"/>
			</filter>
		</defs>
		<mask maskUnits="userSpaceOnUse" x="22" y="49" width="196.3" height="142.8" id="h_1_">
			<g class="st10">
				<path id="g_1_" class="st1" d="M35.4,49C28,49,22,55,22,62.4v116c0,7.4,6,13.4,13.4,13.4h169.5c7.4,0,13.4-6,13.4-13.4v-116
					c0-7.4-6-13.4-13.4-13.4H35.4z"/>
			</g>
		</mask>
		<g class="st11">
			<path class="st12" d="M204.9,49l-84.8,58L35.4,49H22v13.4c0,4.6,2.3,8.6,5.8,11l92.3,63.2l92.3-63.2c3.6-2.5,5.8-6.6,5.8-11V49
				H204.9z"/>
			<g transform="translate(0 128.253)">
				<defs>
					<filter id="Adobe_OpacityMaskFilter_3_" filterUnits="userSpaceOnUse" x="22" y="49" width="196.3" height="14.5">
						<feColorMatrix  type="matrix" values="1 0 0 0 0  0 1 0 0 0  0 0 1 0 0  0 0 0 1 0"/>
					</filter>
				</defs>
				<mask maskUnits="userSpaceOnUse" x="22" y="49" width="196.3" height="14.5" id="k_1_">
					<g class="st13">
						<path id="j_1_" class="st1" d="M22,49h196.3v14.5H22V49z"/>
					</g>
				</mask>
				<g class="st14">
					<path class="st15" d="M204.9,62.4H35.4C28,62.4,22,56.4,22,49v1.1c0,7.4,6,13.4,13.4,13.4h169.5c7.4,0,13.4-6,13.4-13.4V49
						C218.3,56.4,212.3,62.4,204.9,62.4"/>
				</g>
			</g>
			<g transform="translate(180.67)">
				<defs>
					<filter id="Adobe_OpacityMaskFilter_4_" filterUnits="userSpaceOnUse" x="22.6" y="49" width="15" height="14.5">
						<feColorMatrix  type="matrix" values="1 0 0 0 0  0 1 0 0 0  0 0 1 0 0  0 0 0 1 0"/>
					</filter>
				</defs>
				<mask maskUnits="userSpaceOnUse" x="22.6" y="49" width="15" height="14.5" id="m_1_">
					<g class="st16">
						<path id="l_1_" class="st1" d="M22.6,49h15v14.5h-15V49z"/>
					</g>
				</mask>
				<g class="st17">
					<path class="st1" d="M24.2,49l-1.6,1.1h1.6c7.4,0,13.4,6,13.4,13.4v-1.1C37.6,55,31.6,49,24.2,49"/>
				</g>
			</g>
			<g>
				<defs>
					<filter id="Adobe_OpacityMaskFilter_5_" filterUnits="userSpaceOnUse" x="22" y="49" width="15" height="14.5">
						<feColorMatrix  type="matrix" values="1 0 0 0 0  0 1 0 0 0  0 0 1 0 0  0 0 0 1 0"/>
					</filter>
				</defs>
				<mask maskUnits="userSpaceOnUse" x="22" y="49" width="15" height="14.5" id="o_1_">
					<g class="st18">
						<path id="n_1_" class="st1" d="M22,49h15v14.5H22V49z"/>
					</g>
				</mask>
				<g class="st19">
					<path class="st1" d="M35.4,49l1.6,1.1h-1.6c-7.4,0-13.4,6-13.4,13.4v-1.1C22,55,28,49,35.4,49"/>
				</g>
			</g>
			<g transform="translate(0 12.268)">
				<defs>
					<filter id="Adobe_OpacityMaskFilter_6_" filterUnits="userSpaceOnUse" x="22" y="49" width="196.3" height="75.3">
						<feColorMatrix  type="matrix" values="1 0 0 0 0  0 1 0 0 0  0 0 1 0 0  0 0 0 1 0"/>
					</filter>
				</defs>
				<mask maskUnits="userSpaceOnUse" x="22" y="49" width="196.3" height="75.3" id="q_1_">
					<g class="st20">
						<path id="p_1_" class="st1" d="M22,49h196.3v75.3H22V49z"/>
					</g>
				</mask>
				<g class="st21">
					<path class="st22" d="M212.5,60l-92.3,63.2L27.8,60c-3.6-2.5-5.8-6.6-5.8-11v1.1c0,4.6,2.3,8.6,5.8,11l92.3,63.2l92.3-63.2
						c3.6-2.5,5.8-6.6,5.8-11V49C218.3,53.6,216,57.6,212.5,60"/>
				</g>
			</g>
			<path class="st23" d="M35.4,49l84.8,58l84.8-58H35.4z"/>
			<g transform="translate(13.383)">
				<defs>
					<filter id="Adobe_OpacityMaskFilter_7_" filterUnits="userSpaceOnUse" x="22" y="49" width="169.5" height="1.1">
						<feColorMatrix  type="matrix" values="1 0 0 0 0  0 1 0 0 0  0 0 1 0 0  0 0 0 1 0"/>
					</filter>
				</defs>
				<mask maskUnits="userSpaceOnUse" x="22" y="49" width="169.5" height="1.1" id="s_1_">
					<g class="st24">
						<path id="r_1_" class="st1" d="M22,49h169.5v1.1H22V49z"/>
					</g>
				</mask>
				<g class="st25">
					<path class="st15" d="M22,49l1.6,1.1h166.3l1.6-1.1H22z"/>
				</g>
			</g>
		</g>
	</g>
	
		<radialGradient id="SVGID_2_" cx="-834.5911" cy="657.6982" r="1.1811" gradientTransform="matrix(196.283 0 0 -142.751 163842.4219 93939.4063)" gradientUnits="userSpaceOnUse">
		<stop  offset="0" style="stop-color:#FFFFFF;stop-opacity:0.1"/>
		<stop  offset="1" style="stop-color:#000000;stop-opacity:0"/>
	</radialGradient>
	<path class="st26" d="M35.4,49C28,49,22,55,22,62.4v116c0,7.4,6,13.4,13.4,13.4h169.5c7.4,0,13.4-6,13.4-13.4v-116
		c0-7.4-6-13.4-13.4-13.4H35.4z"/>
</g>
</svg>
