<?xml version="1.0" encoding="utf-8"?>
<!-- Generator: Adobe Illustrator 21.0.0, SVG Export Plug-In . SVG Version: 6.00 Build 0)  -->
<svg version="1.1" id="Слой_1" xmlns="http://www.w3.org/2000/svg" xmlns:xlink="http://www.w3.org/1999/xlink" x="0px" y="0px"
	 viewBox="0 0 214.1 214.1" style="enable-background:new 0 0 214.1 214.1;" xml:space="preserve">
<style type="text/css">
	.st0{fill:none;stroke:#000000;stroke-miterlimit:10;}
	.st1{font-family:'OpenSans';}
	.st2{font-size:11.5584px;}
</style>
<path d="M80.5,122.9h17.6v18.9h-7.6v-3.9c-1.2,1.4-2.6,2.5-4.1,3.2s-3.3,1.1-5.4,1.1c-2.5,0-4.8-0.4-6.8-1.3c-2-0.9-3.7-2.1-5.1-3.6
	s-2.4-3.4-3.2-5.4c-0.7-2.1-1.1-4.4-1.1-6.8s0.4-4.6,1.2-6.7c0.8-2.1,1.9-3.9,3.4-5.4c1.5-1.6,3.3-2.8,5.5-3.7
	c2.2-0.9,4.6-1.3,7.4-1.3c3.6,0,6.6,0.8,9.3,2.3c2.6,1.6,4.6,3.9,5.8,6.9l-8,3.4c-0.4-1.9-1.3-3.3-2.5-4.2c-1.3-0.9-2.8-1.4-4.8-1.4
	c-1.2,0-2.4,0.2-3.4,0.7s-1.9,1.1-2.7,2c-0.7,0.9-1.3,1.9-1.7,3.1c-0.4,1.2-0.6,2.6-0.6,4.2c0,3.1,0.7,5.5,2.2,7.4
	c1.5,1.9,3.7,2.8,6.8,2.8c1,0,1.8-0.1,2.7-0.4c0.8-0.3,1.6-0.6,2.3-1.1c0.7-0.5,1.2-1,1.7-1.7c0.4-0.6,0.7-1.4,0.9-2.2h-9.7v-6.9
	H80.5z"/>
<path d="M116.8,141.8v-3.7c-0.7,1.2-1.7,2.2-2.9,3s-2.6,1.2-4.4,1.2c-2.6,0-4.6-0.7-6.1-2.2s-2.3-3.8-2.3-7v-15.6h8.1v13.2
	c0,1.5,0.2,2.6,0.7,3.4s1.3,1.2,2.6,1.2c1.3,0,2.3-0.4,3-1.2s1.1-1.9,1.1-3.2v-13.4h8.1v24.3H116.8L116.8,141.8z"/>
<polygon points="128.2,141.8 128.2,117.5 136.3,117.5 136.3,141.8 "/>
<polygon points="128.2,108.5 136.3,108.5 136.3,115.2 128.2,115.2 "/>
<path d="M156.3,108.5V120c-0.8-0.9-1.8-1.6-2.8-2.1c-1.1-0.5-2.3-0.8-3.6-0.8c-1.5,0-3,0.3-4.3,0.8c-1.3,0.6-2.5,1.4-3.5,2.5
	s-1.8,2.4-2.3,3.9c-0.6,1.5-0.9,3.3-0.9,5.3s0.3,3.7,0.8,5.3s1.3,2.9,2.2,3.9c1,1.1,2.1,1.9,3.4,2.5c1.3,0.6,2.8,0.8,4.3,0.8
	c1.3,0,2.6-0.3,3.7-0.8c1.1-0.6,2.1-1.3,3-2.4v2.8h8v-33.3L156.3,108.5L156.3,108.5z M155.1,134.3c-1,1-2.1,1.5-3.4,1.5
	s-2.4-0.5-3.3-1.5c-0.9-1-1.4-2.6-1.4-4.7c0-2.1,0.5-3.7,1.4-4.7s2.1-1.5,3.4-1.5c1.3,0,2.4,0.5,3.4,1.5c0.9,1,1.4,2.6,1.4,4.7
	C156.5,131.7,156,133.3,155.1,134.3z"/>
<path d="M191.8,129.8c0-1.9-0.3-3.6-0.8-5.2c-0.6-1.6-1.4-2.9-2.4-4s-2.3-2-3.8-2.6s-3.2-1-5.1-1c-1.8,0-3.5,0.3-5.1,1
	c-1.5,0.7-2.9,1.6-4,2.8c-1.1,1.2-2,2.5-2.6,4.1s-1,3.2-1,5c0,2,0.3,3.8,1,5.3s1.6,2.8,2.8,3.9c1.2,1.1,2.5,1.9,4.1,2.4
	s3.2,0.8,5,0.8c5.2,0,9-1.8,11.4-5.5l-5.8-3.4c-0.4,0.9-1,1.6-1.8,2.1s-1.9,0.8-3.2,0.8c-1.5,0-2.7-0.4-3.7-1.2s-1.6-2-1.8-3.6h16.9
	L191.8,129.8L191.8,129.8z M175.2,126.6c0.3-1,0.8-1.8,1.6-2.5s1.8-1,2.9-1c1.3,0,2.3,0.4,2.9,1.1c0.7,0.7,1,1.5,1.1,2.4H175.2z"/>
<path d="M169.2,83c-1.8-1.7-4.6-2.5-8.2-2.5c-2,0-3.7,0.3-5.1,0.8c-1.4,0.5-2.6,1.3-3.5,2.1c-0.9,0.9-1.6,1.8-2,2.9
	s-0.6,2.1-0.6,3.2h7.5c-0.1-0.9,0.1-1.7,0.7-2.3c0.6-0.6,1.5-0.9,2.6-0.9c2.2,0,3.3,1.1,3.3,3.3v0.5l-5.6,1
	c-3.3,0.6-5.7,1.5-7.1,2.7c-1.4,1.2-2.1,2.9-2.1,5.1c0,2.1,0.6,3.7,2,5c1.3,1.3,3.1,1.9,5.6,1.9c1.7,0,3.2-0.3,4.5-1s2.3-1.5,3-2.5
	v3h7.9v-15C171.9,87.1,171,84.7,169.2,83z M163.9,95.8c-0.1,1.4-0.5,2.4-1.3,3.3s-1.9,1.2-3.3,1.2c-0.8,0-1.5-0.2-1.9-0.6
	s-0.7-0.9-0.7-1.6s0.2-1.2,0.7-1.6s1.3-0.8,2.6-1.1l3.8-0.9L163.9,95.8L163.9,95.8z"/>
<path d="M146.7,89.5v15.7h-8.1V91.9c0-1.4-0.3-2.5-0.8-3.2c-0.6-0.8-1.5-1.1-2.7-1.1c-1.3,0-2.3,0.4-3,1.2c-0.7,0.8-1.1,1.9-1.1,3.2
	v13.2h-8.1V80.9h8v3.7c0.7-1.2,1.7-2.2,3-3s2.8-1.2,4.5-1.2c2.6,0,4.6,0.7,6.1,2.2C145.9,84.1,146.7,86.4,146.7,89.5z"/>
<path d="M116.9,83c-1.8-1.7-4.6-2.5-8.2-2.5c-2,0-3.7,0.3-5.1,0.8s-2.6,1.3-3.5,2.1c-0.9,0.9-1.6,1.8-2,2.9s-0.6,2.1-0.6,3.2h7.5
	c-0.1-0.9,0.2-1.7,0.7-2.3c0.6-0.6,1.5-0.9,2.6-0.9c2.2,0,3.3,1.1,3.3,3.3v0.5l-5.6,1c-3.3,0.6-5.7,1.5-7.1,2.7s-2.1,2.9-2.1,5.1
	c0,2.1,0.6,3.7,2,5c1.3,1.3,3.2,1.9,5.6,1.9c1.7,0,3.2-0.3,4.5-1s2.3-1.5,3-2.5v3h7.9v-15C119.6,87.1,118.7,84.7,116.9,83z
	 M111.6,95.8c-0.1,1.4-0.5,2.4-1.3,3.3s-1.9,1.2-3.3,1.2c-0.8,0-1.5-0.2-1.9-0.6s-0.7-0.9-0.7-1.6s0.2-1.2,0.7-1.6s1.4-0.8,2.6-1.1
	l3.8-0.9v1.3H111.6z"/>
<path d="M90.5,86.3v10.5c0,0.8,0.3,1.3,0.7,1.6c0.5,0.3,1.3,0.4,2.3,0.4h1.4v6.5h-4.2c-1.2,0-2.3-0.1-3.3-0.3
	c-1-0.2-1.9-0.5-2.6-1.1c-0.7-0.5-1.3-1.2-1.7-2.1c-0.4-0.9-0.6-2-0.6-3.5v-12h-3.2v-5.4h3.2v-7.5h8v7.5H95v5.4H90.5z"/>
<path d="M78.7,97.3c0,1-0.2,2-0.7,3s-1.2,1.9-2.1,2.7c-0.9,0.8-2.1,1.4-3.6,1.9s-3.2,0.7-5.2,0.7c-5.2,0-9-1.3-11.4-4l4.8-4.5
	c0.5,1,1.3,1.8,2.4,2.3s2.4,0.8,3.9,0.8c1.4,0,2.4-0.2,3.1-0.6s1-0.9,1-1.4s-0.3-0.9-0.8-1.2c-0.5-0.3-1.6-0.5-3.2-0.7
	c-3.6-0.3-6.2-1.1-7.7-2.5c-1.5-1.3-2.3-3.1-2.3-5.3c0-1.2,0.3-2.3,0.8-3.3s1.2-1.9,2.2-2.6c0.9-0.7,2.1-1.3,3.4-1.7
	c1.3-0.4,2.8-0.7,4.5-0.7c2.3,0,4.3,0.3,5.9,1c1.6,0.6,3.1,1.6,4.5,3l-4.8,4.3c-0.5-0.8-1.3-1.5-2.4-2s-2.2-0.7-3.4-0.7
	c-1.1,0-2,0.2-2.5,0.5c-0.6,0.3-0.9,0.8-0.9,1.3c0,0.3,0.1,0.5,0.2,0.7s0.4,0.4,0.7,0.5c0.3,0.1,0.8,0.3,1.3,0.4s1.3,0.2,2.2,0.3
	c2,0.2,3.7,0.6,5,1c1.3,0.5,2.4,1,3.1,1.7c0.8,0.7,1.3,1.4,1.6,2.3C78.5,95.6,78.7,96.4,78.7,97.3z"/>
<path d="M44.2,71.9H32.6l-11.3,33.3h8.8l1.9-5.9h12.3l1.9,5.9h9.2L44.2,71.9z M34.3,92.1l1.9-6l1.9-6.6l2,6.6l1.9,6H34.3z"/>
<circle class="st0" cx="191.9" cy="71.9" r="7.1"/>
<text transform="matrix(1 0 0 1 188.5762 75.8324)" class="st1 st2">R</text>
</svg>
