<?xml version="1.0" encoding="utf-8"?>
<!-- Generator: Adobe Illustrator 21.0.0, SVG Export Plug-In . SVG Version: 6.00 Build 0)  -->
<svg version="1.1" id="Слой_1" xmlns="http://www.w3.org/2000/svg" xmlns:xlink="http://www.w3.org/1999/xlink" x="0px" y="0px"
	 viewBox="0 0 170.6 70.4" style="enable-background:new 0 0 170.6 70.4;" xml:space="preserve">
<path d="M59.2,51h17.6v18.9h-7.6V66c-1.2,1.4-2.6,2.5-4.1,3.2c-1.5,0.7-3.3,1.1-5.4,1.1c-2.5,0-4.8-0.4-6.8-1.3
	c-2-0.9-3.7-2.1-5.1-3.6S45.4,62,44.6,60c-0.7-2.1-1.1-4.4-1.1-6.8s0.4-4.6,1.2-6.7c0.8-2.1,1.9-3.9,3.4-5.4
	c1.5-1.6,3.3-2.8,5.5-3.7c2.2-0.9,4.6-1.3,7.4-1.3c3.6,0,6.6,0.8,9.3,2.3c2.6,1.6,4.6,3.9,5.8,6.9l-8,3.4c-0.4-1.9-1.3-3.3-2.5-4.2
	c-1.3-0.9-2.8-1.4-4.8-1.4c-1.2,0-2.4,0.2-3.4,0.7s-1.9,1.1-2.7,2c-0.7,0.9-1.3,1.9-1.7,3.1c-0.4,1.2-0.6,2.6-0.6,4.2
	c0,3.1,0.7,5.5,2.2,7.4c1.5,1.9,3.7,2.8,6.8,2.8c1,0,1.8-0.1,2.7-0.4c0.8-0.3,1.6-0.6,2.3-1.1s1.2-1,1.7-1.7
	c0.4-0.6,0.7-1.4,0.9-2.2h-9.7V51L59.2,51L59.2,51z"/>
<path d="M95.5,69.9v-3.7c-0.7,1.2-1.7,2.2-2.9,3c-1.2,0.8-2.6,1.2-4.4,1.2c-2.6,0-4.6-0.7-6.1-2.2s-2.3-3.8-2.3-7V45.6h8.1v13.2
	c0,1.5,0.2,2.6,0.7,3.4s1.3,1.2,2.6,1.2s2.3-0.4,3-1.2s1.1-1.9,1.1-3.2V45.6h8.1v24.3H95.5L95.5,69.9z"/>
<polygon points="106.9,69.9 106.9,45.6 115,45.6 115,69.9 "/>
<polygon points="106.9,36.6 115,36.6 115,43.3 106.9,43.3 "/>
<path d="M135,36.6v11.5c-0.8-0.9-1.8-1.6-2.8-2.1c-1.1-0.5-2.3-0.8-3.6-0.8c-1.5,0-3,0.3-4.3,0.8c-1.3,0.6-2.5,1.4-3.5,2.5
	s-1.8,2.4-2.3,3.9c-0.6,1.5-0.9,3.3-0.9,5.3s0.3,3.7,0.8,5.3s1.3,2.9,2.2,3.9c1,1.1,2.1,1.9,3.4,2.5c1.3,0.6,2.8,0.8,4.3,0.8
	c1.3,0,2.6-0.3,3.7-0.8c1.1-0.6,2.1-1.3,3-2.4v2.8h8V36.5L135,36.6L135,36.6z M133.8,62.4c-1,1-2.1,1.5-3.4,1.5s-2.4-0.5-3.3-1.5
	c-0.9-1-1.4-2.6-1.4-4.7c0-2.1,0.5-3.7,1.4-4.7s2.1-1.5,3.4-1.5c1.3,0,2.4,0.5,3.4,1.5c0.9,1,1.4,2.6,1.4,4.7
	C135.2,59.8,134.7,61.4,133.8,62.4z"/>
<path d="M170.5,57.9c0-1.9-0.3-3.6-0.8-5.2c-0.6-1.6-1.4-2.9-2.4-4s-2.3-2-3.8-2.6s-3.2-1-5.1-1c-1.8,0-3.5,0.3-5.1,1
	c-1.5,0.7-2.9,1.6-4,2.8c-1.1,1.2-2,2.5-2.6,4.1s-1,3.2-1,5c0,2,0.3,3.8,1,5.3s1.6,2.8,2.8,3.9c1.2,1.1,2.5,1.9,4.1,2.4
	s3.2,0.8,5,0.8c5.2,0,9-1.8,11.4-5.5l-5.8-3.4c-0.4,0.9-1,1.6-1.8,2.1s-1.9,0.8-3.2,0.8c-1.5,0-2.7-0.4-3.7-1.2s-1.6-2-1.8-3.6h16.9
	L170.5,57.9L170.5,57.9z M153.9,54.7c0.3-1,0.8-1.8,1.6-2.5s1.8-1,2.9-1c1.3,0,2.3,0.4,2.9,1.1c0.7,0.7,1,1.5,1.1,2.4H153.9z"/>
<path d="M147.9,11.1c-1.8-1.7-4.6-2.5-8.2-2.5c-2,0-3.7,0.3-5.1,0.8c-1.4,0.5-2.6,1.3-3.5,2.1c-0.9,0.9-1.6,1.8-2,2.9
	s-0.6,2.1-0.6,3.2h7.5c-0.1-0.9,0.1-1.7,0.7-2.3c0.6-0.6,1.5-0.9,2.6-0.9c2.2,0,3.3,1.1,3.3,3.3v0.5l-5.6,1
	c-3.3,0.6-5.7,1.5-7.1,2.7c-1.4,1.2-2.1,2.9-2.1,5.1c0,2.1,0.6,3.7,2,5c1.3,1.3,3.1,1.9,5.6,1.9c1.7,0,3.2-0.3,4.5-1s2.3-1.5,3-2.5
	v3h7.9v-15C150.6,15.2,149.7,12.8,147.9,11.1z M142.6,23.9c-0.1,1.4-0.5,2.4-1.3,3.3s-1.9,1.2-3.3,1.2c-0.8,0-1.5-0.2-1.9-0.6
	s-0.7-0.9-0.7-1.6s0.2-1.2,0.7-1.6s1.3-0.8,2.6-1.1l3.8-0.9L142.6,23.9L142.6,23.9z"/>
<path d="M125.4,17.6v15.7h-8.1V20c0-1.4-0.3-2.5-0.8-3.2c-0.6-0.8-1.5-1.1-2.7-1.1c-1.3,0-2.3,0.4-3,1.2c-0.7,0.8-1.1,1.9-1.1,3.2
	v13.2h-8.1V9h8v3.7c0.7-1.2,1.7-2.2,3-3s2.8-1.2,4.5-1.2c2.6,0,4.6,0.7,6.1,2.2C124.6,12.2,125.4,14.5,125.4,17.6z"/>
<path d="M95.6,11.1c-1.8-1.7-4.6-2.5-8.2-2.5c-2,0-3.7,0.3-5.1,0.8c-1.4,0.5-2.6,1.3-3.5,2.1c-0.9,0.9-1.6,1.8-2,2.9
	c-0.4,1.1-0.6,2.1-0.6,3.2h7.5c-0.1-0.9,0.2-1.7,0.7-2.3c0.6-0.6,1.5-0.9,2.6-0.9c2.2,0,3.3,1.1,3.3,3.3v0.5l-5.6,1
	c-3.3,0.6-5.7,1.5-7.1,2.7c-1.4,1.2-2.1,2.9-2.1,5.1c0,2.1,0.6,3.7,2,5c1.3,1.3,3.2,1.9,5.6,1.9c1.7,0,3.2-0.3,4.5-1s2.3-1.5,3-2.5
	v3h7.9v-15C98.3,15.2,97.4,12.8,95.6,11.1z M90.3,23.9c-0.1,1.4-0.5,2.4-1.3,3.3s-1.9,1.2-3.3,1.2c-0.8,0-1.5-0.2-1.9-0.6
	c-0.4-0.4-0.7-0.9-0.7-1.6s0.2-1.2,0.7-1.6s1.4-0.8,2.6-1.1l3.8-0.9v1.3C90.2,23.9,90.3,23.9,90.3,23.9z"/>
<path d="M69.2,14.4v10.5c0,0.8,0.3,1.3,0.7,1.6c0.5,0.3,1.3,0.4,2.3,0.4h1.4v6.5h-4.2c-1.2,0-2.3-0.1-3.3-0.3
	c-1-0.2-1.9-0.5-2.6-1.1c-0.7-0.5-1.3-1.2-1.7-2.1c-0.4-0.9-0.6-2-0.6-3.5v-12H58V9h3.2V1.5h8V9h4.5v5.4H69.2z"/>
<path d="M57.4,25.4c0,1-0.2,2-0.7,3s-1.2,1.9-2.1,2.7c-0.9,0.8-2.1,1.4-3.6,1.9s-3.2,0.7-5.2,0.7c-5.2,0-9-1.3-11.4-4l4.8-4.5
	c0.5,1,1.3,1.8,2.4,2.3s2.4,0.8,3.9,0.8c1.4,0,2.4-0.2,3.1-0.6s1-0.9,1-1.4s-0.3-0.9-0.8-1.2c-0.5-0.3-1.6-0.5-3.2-0.7
	c-3.6-0.3-6.2-1.1-7.7-2.5c-1.5-1.3-2.3-3.1-2.3-5.3c0-1.2,0.3-2.3,0.8-3.3s1.2-1.9,2.2-2.6C39.5,10,40.7,9.4,42,9
	c1.3-0.4,2.8-0.7,4.5-0.7c2.3,0,4.3,0.3,5.9,1c1.6,0.6,3.1,1.6,4.5,3l-4.8,4.3c-0.5-0.8-1.3-1.5-2.4-2s-2.2-0.7-3.4-0.7
	c-1.1,0-2,0.2-2.5,0.5c-0.6,0.3-0.9,0.8-0.9,1.3c0,0.3,0.1,0.5,0.2,0.7s0.4,0.4,0.7,0.5c0.3,0.1,0.8,0.3,1.3,0.4s1.3,0.2,2.2,0.3
	c2,0.2,3.7,0.6,5,1c1.3,0.5,2.4,1,3.1,1.7c0.8,0.7,1.3,1.4,1.6,2.3C57.2,23.7,57.4,24.5,57.4,25.4z"/>
<path d="M22.9,0H11.3L0,33.3h8.8l1.9-5.9H23l1.9,5.9h9.2L22.9,0z M13,20.2l1.9-6l1.9-6.6l2,6.6l1.9,6H13z"/>
</svg>
