<?xml version="1.0" encoding="utf-8"?>
<!-- Generator: Adobe Illustrator 21.0.0, SVG Export Plug-In . SVG Version: 6.00 Build 0)  -->
<svg version="1.1" xmlns="http://www.w3.org/2000/svg" xmlns:xlink="http://www.w3.org/1999/xlink" x="0px" y="0px"
	 viewBox="0 0 240 240" style="enable-background:new 0 0 240 240;" xml:space="preserve">
<style type="text/css">
	.st0{display:none;}
	.st1{display:inline;}
	.st2{filter:url(#Adobe_OpacityMaskFilter);}
	.st3{fill:#FFFFFF;}
	.st4{mask:url(#b_1_);}
	.st5{fill:#E7E7E7;}
	.st6{fill:#F1F1F1;}
	.st7{filter:url(#Adobe_OpacityMaskFilter_1_);}
	.st8{opacity:0.4;mask:url(#e_1_);}
	.st9{fill:#DD553F;}
	.st10{fill:#D24F36;}
	.st11{fill:url(#SVGID_1_);}
	.st12{filter:url(#Adobe_OpacityMaskFilter_2_);}
	.st13{mask:url(#h_1_);}
	.st14{fill:#E45B46;}
	.st15{filter:url(#Adobe_OpacityMaskFilter_3_);}
	.st16{opacity:0.2;mask:url(#k_1_);}
	.st17{fill:#323232;}
	.st18{filter:url(#Adobe_OpacityMaskFilter_4_);}
	.st19{opacity:0.2;mask:url(#m_1_);}
	.st20{filter:url(#Adobe_OpacityMaskFilter_5_);}
	.st21{opacity:0.2;mask:url(#o_1_);}
	.st22{filter:url(#Adobe_OpacityMaskFilter_6_);}
	.st23{opacity:0.25;mask:url(#q_1_);}
	.st24{fill:#50342E;}
	.st25{fill:#F4F4F4;}
	.st26{filter:url(#Adobe_OpacityMaskFilter_7_);}
	.st27{opacity:2.000000e-02;mask:url(#s_1_);}
	.st28{fill:url(#SVGID_2_);}
	.st29{fill:url(#SVGID_3_);}
	.st30{fill:#C8DAEA;}
	.st31{fill:#A9C9DD;}
	.st32{fill:url(#SVGID_4_);}
</style>
<g id="Слой_1" class="st0">
	<g class="st1">
		<g>
			<defs>
				<filter id="Adobe_OpacityMaskFilter" filterUnits="userSpaceOnUse" x="22" y="62.4" width="196.3" height="129.4">
					<feColorMatrix  type="matrix" values="1 0 0 0 0  0 1 0 0 0  0 0 1 0 0  0 0 0 1 0"/>
				</filter>
			</defs>
			<mask maskUnits="userSpaceOnUse" x="22" y="62.4" width="196.3" height="129.4" id="b_1_">
				<g class="st2">
					<path id="a_1_" class="st3" d="M35.4,49C28,49,22,55,22,62.4v116c0,7.4,6,13.4,13.4,13.4h169.5c7.4,0,13.4-6,13.4-13.4v-116
						c0-7.4-6-13.4-13.4-13.4H35.4z"/>
				</g>
			</mask>
			<g class="st4">
				<path class="st5" d="M44.3,191.8H196V81.3H44.3V191.8z"/>
				<path class="st6" d="M120.1,136.6l-75.8,55.2H196V81.3L120.1,136.6z"/>
				<g transform="translate(22.305 32.342)">
					<defs>
						<filter id="Adobe_OpacityMaskFilter_1_" filterUnits="userSpaceOnUse" x="22" y="49" width="151.7" height="110.4">
							<feColorMatrix  type="matrix" values="1 0 0 0 0  0 1 0 0 0  0 0 1 0 0  0 0 0 1 0"/>
						</filter>
					</defs>
					<mask maskUnits="userSpaceOnUse" x="22" y="49" width="151.7" height="110.4" id="e_1_">
						<g class="st7">
							<path id="d_1_" class="st3" d="M22,49h151.7v110.4H22V49z"/>
						</g>
					</mask>
					<g class="st8">
						<path class="st3" d="M97.8,104.3L22,159.4h1.5l74.3-54l75.8-55.2V49L97.8,104.3z"/>
					</g>
				</g>
				<path class="st9" d="M22,62.4v129.4h22.3V62.4H22z"/>
				<path class="st10" d="M196,62.4v129.4h22.3V62.4H196z"/>
			</g>
		</g>
		
			<linearGradient id="SVGID_1_" gradientUnits="userSpaceOnUse" x1="-834.2469" y1="657.6771" x2="-833.6392" y2="656.7735" gradientTransform="matrix(192.363 0 0 -129.367 160557.4688 85105.9766)">
			<stop  offset="0" style="stop-color:#262626;stop-opacity:0.2"/>
			<stop  offset="1" style="stop-color:#000000;stop-opacity:2.000000e-02"/>
		</linearGradient>
		<path class="st11" d="M25.9,71.8l119.9,119.9h59.1c7.4,0,13.4-6,13.4-13.4v-116L25.9,71.8L25.9,71.8z"/>
		<g>
			<defs>
				<filter id="Adobe_OpacityMaskFilter_2_" filterUnits="userSpaceOnUse" x="22" y="49" width="196.3" height="142.8">
					<feColorMatrix  type="matrix" values="1 0 0 0 0  0 1 0 0 0  0 0 1 0 0  0 0 0 1 0"/>
				</filter>
			</defs>
			<mask maskUnits="userSpaceOnUse" x="22" y="49" width="196.3" height="142.8" id="h_1_">
				<g class="st12">
					<path id="g_1_" class="st3" d="M35.4,49C28,49,22,55,22,62.4v116c0,7.4,6,13.4,13.4,13.4h169.5c7.4,0,13.4-6,13.4-13.4v-116
						c0-7.4-6-13.4-13.4-13.4H35.4z"/>
				</g>
			</mask>
			<g class="st13">
				<path class="st14" d="M204.9,49l-84.8,58L35.4,49H22v13.4c0,4.6,2.3,8.6,5.8,11l92.3,63.2l92.3-63.2c3.6-2.5,5.8-6.6,5.8-11V49
					H204.9z"/>
				<g transform="translate(0 128.253)">
					<defs>
						<filter id="Adobe_OpacityMaskFilter_3_" filterUnits="userSpaceOnUse" x="22" y="49" width="196.3" height="14.5">
							<feColorMatrix  type="matrix" values="1 0 0 0 0  0 1 0 0 0  0 0 1 0 0  0 0 0 1 0"/>
						</filter>
					</defs>
					<mask maskUnits="userSpaceOnUse" x="22" y="49" width="196.3" height="14.5" id="k_1_">
						<g class="st15">
							<path id="j_1_" class="st3" d="M22,49h196.3v14.5H22V49z"/>
						</g>
					</mask>
					<g class="st16">
						<path class="st17" d="M204.9,62.4H35.4C28,62.4,22,56.4,22,49v1.1c0,7.4,6,13.4,13.4,13.4h169.5c7.4,0,13.4-6,13.4-13.4V49
							C218.3,56.4,212.3,62.4,204.9,62.4"/>
					</g>
				</g>
				<g transform="translate(180.67)">
					<defs>
						<filter id="Adobe_OpacityMaskFilter_4_" filterUnits="userSpaceOnUse" x="22.6" y="49" width="15" height="14.5">
							<feColorMatrix  type="matrix" values="1 0 0 0 0  0 1 0 0 0  0 0 1 0 0  0 0 0 1 0"/>
						</filter>
					</defs>
					<mask maskUnits="userSpaceOnUse" x="22.6" y="49" width="15" height="14.5" id="m_1_">
						<g class="st18">
							<path id="l_1_" class="st3" d="M22.6,49h15v14.5h-15V49z"/>
						</g>
					</mask>
					<g class="st19">
						<path class="st3" d="M24.2,49l-1.6,1.1h1.6c7.4,0,13.4,6,13.4,13.4v-1.1C37.6,55,31.6,49,24.2,49"/>
					</g>
				</g>
				<g>
					<defs>
						<filter id="Adobe_OpacityMaskFilter_5_" filterUnits="userSpaceOnUse" x="22" y="49" width="15" height="14.5">
							<feColorMatrix  type="matrix" values="1 0 0 0 0  0 1 0 0 0  0 0 1 0 0  0 0 0 1 0"/>
						</filter>
					</defs>
					<mask maskUnits="userSpaceOnUse" x="22" y="49" width="15" height="14.5" id="o_1_">
						<g class="st20">
							<path id="n_1_" class="st3" d="M22,49h15v14.5H22V49z"/>
						</g>
					</mask>
					<g class="st21">
						<path class="st3" d="M35.4,49l1.6,1.1h-1.6c-7.4,0-13.4,6-13.4,13.4v-1.1C22,55,28,49,35.4,49"/>
					</g>
				</g>
				<g transform="translate(0 12.268)">
					<defs>
						<filter id="Adobe_OpacityMaskFilter_6_" filterUnits="userSpaceOnUse" x="22" y="49" width="196.3" height="75.3">
							<feColorMatrix  type="matrix" values="1 0 0 0 0  0 1 0 0 0  0 0 1 0 0  0 0 0 1 0"/>
						</filter>
					</defs>
					<mask maskUnits="userSpaceOnUse" x="22" y="49" width="196.3" height="75.3" id="q_1_">
						<g class="st22">
							<path id="p_1_" class="st3" d="M22,49h196.3v75.3H22V49z"/>
						</g>
					</mask>
					<g class="st23">
						<path class="st24" d="M212.5,60l-92.3,63.2L27.8,60c-3.6-2.5-5.8-6.6-5.8-11v1.1c0,4.6,2.3,8.6,5.8,11l92.3,63.2l92.3-63.2
							c3.6-2.5,5.8-6.6,5.8-11V49C218.3,53.6,216,57.6,212.5,60"/>
					</g>
				</g>
				<path class="st25" d="M35.4,49l84.8,58l84.8-58H35.4z"/>
				<g transform="translate(13.383)">
					<defs>
						<filter id="Adobe_OpacityMaskFilter_7_" filterUnits="userSpaceOnUse" x="22" y="49" width="169.5" height="1.1">
							<feColorMatrix  type="matrix" values="1 0 0 0 0  0 1 0 0 0  0 0 1 0 0  0 0 0 1 0"/>
						</filter>
					</defs>
					<mask maskUnits="userSpaceOnUse" x="22" y="49" width="169.5" height="1.1" id="s_1_">
						<g class="st26">
							<path id="r_1_" class="st3" d="M22,49h169.5v1.1H22V49z"/>
						</g>
					</mask>
					<g class="st27">
						<path class="st17" d="M22,49l1.6,1.1h166.3l1.6-1.1H22z"/>
					</g>
				</g>
			</g>
		</g>
		
			<radialGradient id="SVGID_2_" cx="-834.5911" cy="657.6982" r="1.1811" gradientTransform="matrix(196.283 0 0 -142.751 163842.4219 93939.4063)" gradientUnits="userSpaceOnUse">
			<stop  offset="0" style="stop-color:#FFFFFF;stop-opacity:0.1"/>
			<stop  offset="1" style="stop-color:#000000;stop-opacity:0"/>
		</radialGradient>
		<path class="st28" d="M35.4,49C28,49,22,55,22,62.4v116c0,7.4,6,13.4,13.4,13.4h169.5c7.4,0,13.4-6,13.4-13.4v-116
			c0-7.4-6-13.4-13.4-13.4H35.4z"/>
	</g>
</g>
<g id="Слой_2">
	
		<linearGradient id="SVGID_3_" gradientUnits="userSpaceOnUse" x1="-133.8197" y1="376.1983" x2="-134.0135" y2="375.7463" gradientTransform="matrix(240 0 0 -240 32265 90345)">
		<stop  offset="0" style="stop-color:#37AEE2"/>
		<stop  offset="1" style="stop-color:#1E96C8"/>
	</linearGradient>
	<circle class="st29" cx="121" cy="121" r="93"/>
	<path class="st30" d="M103.9,163.6c-3,0-2.5-1.1-3.5-4l-8.9-29.2L159.8,90"/>
	<path class="st31" d="M103.9,163.6c2.3,0,3.4-1.1,4.7-2.3l12.4-12.1l-15.5-9.3"/>
	
		<linearGradient id="SVGID_4_" gradientUnits="userSpaceOnUse" x1="-133.363" y1="375.3001" x2="-133.2145" y2="375.0168" gradientTransform="matrix(130.4927 0 0 -109.4496 17530.4375 41199.6797)">
		<stop  offset="0" style="stop-color:#EFF7FC"/>
		<stop  offset="1" style="stop-color:#FFFFFF"/>
	</linearGradient>
	<path class="st32" d="M105.5,139.9l37.5,27.7c4.3,2.4,7.4,1.1,8.4-4l15.3-71.9c1.6-6.3-2.4-9.1-6.5-7.2L70.6,119
		c-6.1,2.5-6.1,5.9-1.1,7.4l23,7.2l53.2-33.6c2.5-1.5,4.8-0.7,2.9,1"/>
</g>
</svg>
